<mxfile host="app.diagrams.net" modified="2023-05-14T14:33:43.962Z" agent="Mozilla/5.0 (Macintosh; Intel Mac OS X 10_15_7) AppleWebKit/537.36 (KHTML, like Gecko) Chrome/113.0.0.0 Safari/537.36" etag="T-fvdEXy-g9OVyO4Fh8E" version="21.2.9" type="device">
  <diagram id="R2lEEEUBdFMjLlhIrx00" name="Page-1">
    <mxGraphModel dx="1026" dy="660" grid="1" gridSize="10" guides="1" tooltips="1" connect="1" arrows="1" fold="1" page="1" pageScale="1" pageWidth="850" pageHeight="1100" math="0" shadow="0" extFonts="Permanent Marker^https://fonts.googleapis.com/css?family=Permanent+Marker">
      <root>
        <mxCell id="0" />
        <mxCell id="1" parent="0" />
        <mxCell id="AyyPbLpvV-mhFWRa5OnU-1" value="Topic Model" style="rounded=0;whiteSpace=wrap;html=1;" vertex="1" parent="1">
          <mxGeometry x="190" y="170" width="120" height="60" as="geometry" />
        </mxCell>
        <mxCell id="AyyPbLpvV-mhFWRa5OnU-3" value="Dataset" style="ellipse;whiteSpace=wrap;html=1;" vertex="1" parent="1">
          <mxGeometry x="100" y="100" width="90" height="50" as="geometry" />
        </mxCell>
        <mxCell id="AyyPbLpvV-mhFWRa5OnU-4" value="Num Topics" style="ellipse;whiteSpace=wrap;html=1;" vertex="1" parent="1">
          <mxGeometry x="210" y="60" width="90" height="50" as="geometry" />
        </mxCell>
        <mxCell id="AyyPbLpvV-mhFWRa5OnU-5" value="Epochs" style="ellipse;whiteSpace=wrap;html=1;" vertex="1" parent="1">
          <mxGeometry x="320" y="90" width="90" height="50" as="geometry" />
        </mxCell>
        <mxCell id="AyyPbLpvV-mhFWRa5OnU-6" value="Model" style="ellipse;whiteSpace=wrap;html=1;" vertex="1" parent="1">
          <mxGeometry x="60" y="190" width="90" height="50" as="geometry" />
        </mxCell>
        <mxCell id="AyyPbLpvV-mhFWRa5OnU-7" value="" style="endArrow=none;html=1;rounded=0;entryX=0;entryY=0.5;entryDx=0;entryDy=0;exitX=1;exitY=0.5;exitDx=0;exitDy=0;" edge="1" parent="1" source="AyyPbLpvV-mhFWRa5OnU-6" target="AyyPbLpvV-mhFWRa5OnU-1">
          <mxGeometry width="50" height="50" relative="1" as="geometry">
            <mxPoint x="120" y="340" as="sourcePoint" />
            <mxPoint x="170" y="290" as="targetPoint" />
          </mxGeometry>
        </mxCell>
        <mxCell id="AyyPbLpvV-mhFWRa5OnU-8" value="" style="endArrow=none;html=1;rounded=0;entryX=0.25;entryY=0;entryDx=0;entryDy=0;exitX=1;exitY=1;exitDx=0;exitDy=0;" edge="1" parent="1" source="AyyPbLpvV-mhFWRa5OnU-3" target="AyyPbLpvV-mhFWRa5OnU-1">
          <mxGeometry width="50" height="50" relative="1" as="geometry">
            <mxPoint x="160" y="225" as="sourcePoint" />
            <mxPoint x="200" y="210" as="targetPoint" />
          </mxGeometry>
        </mxCell>
        <mxCell id="AyyPbLpvV-mhFWRa5OnU-9" value="" style="endArrow=none;html=1;rounded=0;entryX=0.5;entryY=0;entryDx=0;entryDy=0;exitX=0.5;exitY=1;exitDx=0;exitDy=0;" edge="1" parent="1" source="AyyPbLpvV-mhFWRa5OnU-4" target="AyyPbLpvV-mhFWRa5OnU-1">
          <mxGeometry width="50" height="50" relative="1" as="geometry">
            <mxPoint x="170" y="235" as="sourcePoint" />
            <mxPoint x="210" y="220" as="targetPoint" />
          </mxGeometry>
        </mxCell>
        <mxCell id="AyyPbLpvV-mhFWRa5OnU-10" value="" style="endArrow=none;html=1;rounded=0;entryX=0.75;entryY=0;entryDx=0;entryDy=0;exitX=0;exitY=1;exitDx=0;exitDy=0;" edge="1" parent="1" source="AyyPbLpvV-mhFWRa5OnU-5" target="AyyPbLpvV-mhFWRa5OnU-1">
          <mxGeometry width="50" height="50" relative="1" as="geometry">
            <mxPoint x="180" y="245" as="sourcePoint" />
            <mxPoint x="220" y="230" as="targetPoint" />
          </mxGeometry>
        </mxCell>
        <mxCell id="AyyPbLpvV-mhFWRa5OnU-11" value="used output" style="rhombus;whiteSpace=wrap;html=1;" vertex="1" parent="1">
          <mxGeometry x="410" y="175" width="55" height="50" as="geometry" />
        </mxCell>
        <mxCell id="AyyPbLpvV-mhFWRa5OnU-12" value="" style="endArrow=none;html=1;rounded=0;entryX=0;entryY=0.5;entryDx=0;entryDy=0;exitX=1;exitY=0.5;exitDx=0;exitDy=0;" edge="1" parent="1" source="AyyPbLpvV-mhFWRa5OnU-1" target="AyyPbLpvV-mhFWRa5OnU-11">
          <mxGeometry width="50" height="50" relative="1" as="geometry">
            <mxPoint x="330" y="370" as="sourcePoint" />
            <mxPoint x="380" y="320" as="targetPoint" />
          </mxGeometry>
        </mxCell>
        <mxCell id="AyyPbLpvV-mhFWRa5OnU-13" value="1" style="edgeLabel;html=1;align=center;verticalAlign=middle;resizable=0;points=[];" vertex="1" connectable="0" parent="AyyPbLpvV-mhFWRa5OnU-12">
          <mxGeometry x="-0.14" y="5" relative="1" as="geometry">
            <mxPoint y="1" as="offset" />
          </mxGeometry>
        </mxCell>
        <mxCell id="AyyPbLpvV-mhFWRa5OnU-14" value="Forecast Model" style="rounded=0;whiteSpace=wrap;html=1;" vertex="1" parent="1">
          <mxGeometry x="590" y="170" width="120" height="60" as="geometry" />
        </mxCell>
        <mxCell id="AyyPbLpvV-mhFWRa5OnU-15" value="" style="endArrow=none;html=1;rounded=0;entryX=1;entryY=0.5;entryDx=0;entryDy=0;exitX=0;exitY=0.5;exitDx=0;exitDy=0;" edge="1" parent="1" source="AyyPbLpvV-mhFWRa5OnU-14" target="AyyPbLpvV-mhFWRa5OnU-11">
          <mxGeometry width="50" height="50" relative="1" as="geometry">
            <mxPoint x="330" y="360" as="sourcePoint" />
            <mxPoint x="380" y="310" as="targetPoint" />
          </mxGeometry>
        </mxCell>
        <mxCell id="AyyPbLpvV-mhFWRa5OnU-16" value="1" style="edgeLabel;html=1;align=center;verticalAlign=middle;resizable=0;points=[];" vertex="1" connectable="0" parent="AyyPbLpvV-mhFWRa5OnU-15">
          <mxGeometry x="-0.152" y="2" relative="1" as="geometry">
            <mxPoint as="offset" />
          </mxGeometry>
        </mxCell>
        <mxCell id="AyyPbLpvV-mhFWRa5OnU-17" value="Model" style="ellipse;whiteSpace=wrap;html=1;" vertex="1" parent="1">
          <mxGeometry x="510" y="110" width="90" height="50" as="geometry" />
        </mxCell>
        <mxCell id="AyyPbLpvV-mhFWRa5OnU-18" value="Conigurations" style="ellipse;whiteSpace=wrap;html=1;" vertex="1" parent="1">
          <mxGeometry x="620" y="60" width="90" height="50" as="geometry" />
        </mxCell>
        <mxCell id="AyyPbLpvV-mhFWRa5OnU-19" value="Accuracy" style="ellipse;whiteSpace=wrap;html=1;" vertex="1" parent="1">
          <mxGeometry x="720" y="110" width="90" height="50" as="geometry" />
        </mxCell>
        <mxCell id="AyyPbLpvV-mhFWRa5OnU-20" value="" style="endArrow=none;html=1;rounded=0;entryX=0.5;entryY=1;entryDx=0;entryDy=0;exitX=0.5;exitY=0;exitDx=0;exitDy=0;" edge="1" parent="1" source="AyyPbLpvV-mhFWRa5OnU-14" target="AyyPbLpvV-mhFWRa5OnU-18">
          <mxGeometry width="50" height="50" relative="1" as="geometry">
            <mxPoint x="630" y="170" as="sourcePoint" />
            <mxPoint x="680" y="120" as="targetPoint" />
          </mxGeometry>
        </mxCell>
        <mxCell id="AyyPbLpvV-mhFWRa5OnU-21" value="" style="endArrow=none;html=1;rounded=0;entryX=0;entryY=0.5;entryDx=0;entryDy=0;exitX=0.75;exitY=0;exitDx=0;exitDy=0;" edge="1" parent="1" source="AyyPbLpvV-mhFWRa5OnU-14" target="AyyPbLpvV-mhFWRa5OnU-19">
          <mxGeometry width="50" height="50" relative="1" as="geometry">
            <mxPoint x="660" y="180" as="sourcePoint" />
            <mxPoint x="675" y="120" as="targetPoint" />
          </mxGeometry>
        </mxCell>
        <mxCell id="AyyPbLpvV-mhFWRa5OnU-22" value="" style="endArrow=none;html=1;rounded=0;entryX=1;entryY=0.5;entryDx=0;entryDy=0;exitX=0.25;exitY=0;exitDx=0;exitDy=0;" edge="1" parent="1" source="AyyPbLpvV-mhFWRa5OnU-14" target="AyyPbLpvV-mhFWRa5OnU-17">
          <mxGeometry width="50" height="50" relative="1" as="geometry">
            <mxPoint x="690" y="180" as="sourcePoint" />
            <mxPoint x="730" y="145" as="targetPoint" />
          </mxGeometry>
        </mxCell>
      </root>
    </mxGraphModel>
  </diagram>
</mxfile>
